<svg xmlns="http://www.w3.org/2000/svg" viewBox="0 0 500 500"><g id="freepik--character-1--inject-80"><g id="freepik--character--inject-80"><path d="M116.32,115.7c-7,.19-9,3-13.18,9s-18.55,28.82-18.55,28.82l-20.31,7.8L67,173.18s17.18-3.42,26-5.22a7.51,7.51,0,0,0,5.52-3.76c1.13-1.71,12.42-19.47,12.42-19.47Z" style="fill:#e6e6e6"></path><path d="M121.68,115.89c-6.61-1.65-9.53,2-11.73,6.08-3.52,6.46-5.64,19.66-5.94,43.78-.19,15.51-5.59,34.26-6.55,49C96,236.83,95.32,254,95.32,254a282.8,282.8,0,0,1,39.44-2.32Z" style="fill:#e0e0e0"></path><path d="M159.78,340.82s4-27.15,2.31-43.06c-1.42-13.65-3.43-19.36-3.71-22.47,0,0-2.3-32-1.67-59.19.29-12.87-.36-27.06-9.52-42.23l-.33-.6c-.81,5-8.48,8.2-15.32,9q-9.88,1.1-24.6-3.91c-2.19,12.87-4.67,37.4-7.21,64.13-1.23,13.07-1,24.07-1.24,32.47-.29,11.4.75,56.06.75,56.06l0,1.89c-.07,2.08-.57,3.53-2,6.83a40.34,40.34,0,0,1-7.52,11.56c-1,1-7.73,6.51-8.64,7.71-2.93,3.2,2.85,5.24,7.21,4.81,4.6-.46,11.76-2,13.87-4.69,1.41-1.81,2.63-8.28,4.07-10.12,4.87-6.19,6.87-8.86,7-10.88.18-3.67-1-5.16-1.41-7.24.51-4.31,9.27-26.87,9.85-39.46.28-6-1-16.64-1-16.64L128.24,231c1.71,12.3,5,40,6.13,48.85C136,292,142,312.55,145.78,328.69c1.42,6.07,2.12,8.77,2.47,12.73l.09,1.42c0,1.79.18,20.92.76,25,1.2,8.47,8.71,7.66,10.14.89,1.21-5.76.53-23.73.57-25.94Z" style="fill:#ffa8a7"></path><path d="M160,340.7c2.11.11.45,8.23.82,13.51.4,5.65,2.11,9.83,2.48,14.46.43,5.3-.11,7.5-2.15,11.77-1.58,3.33-9.13,7.71-11.78,2.79s-3.07-10.45-2.57-15.7c.51-5.42,1-9.38,1.22-13.51.21-3.64-2.31-12.28.45-12.71l.08,1.42c.92,2,10.24,3.66,11.48-.08Z" style="fill:#37474f"></path><path d="M113.7,342.43c.56,2.65-.35,9.85-.35,9.85s-1.22,2.45-5.34,4l-1.49-10.1Z" style="fill:#263238"></path><polygon points="108.01 356.25 99.15 353.01 97.26 344.99 107.15 350.42 108.01 356.25"></polygon><path d="M99.47,332.76v-1.89c-1.23.55-4.23,10.26-8.08,16.86-3.5,6-10.17,9.22-12.38,11.82-3,3.48,2.41,8.27,11.35,6.66,4.43-.79,11.2-3.39,13.1-6.3s2.7-8.35,4.25-10.49,5.15-4.53,6-7a13.67,13.67,0,0,0,.21-6.87c-.62-2.29-1.14-5-1.92-4.82l-.11,1.72c-.63,1.19-2.82,2.53-7.31,2.62C102.43,335.12,100.38,334.73,99.47,332.76Z" style="fill:#37474f"></path><path d="M122.77,296.22a92.89,92.89,0,0,0-.75-20.64l6.46-43s4.4,41,5.14,47.32,12.54,74.84,12.54,74.84c6,3.58,13.79,2.44,18.83-.23,0-27.7-.86-55.46-1.86-63.13a132,132,0,0,0-3.59-15.52s-.64-40.41-.61-55.75-1.12-25.6-4-32.5a98.39,98.39,0,0,0-8-14.39s-2.24,7.57-20,7.59-19.72-4.49-19.72-4.49-5.2,18.17-6.93,45.61c-1.4,22.11-1.72,32.17-2.14,42-.36,8.4-.58,18.1-.77,35.07-.15,12.8-2,41-2,41s8.67,4.54,23-.64C118.31,339.32,121.88,307.26,122.77,296.22Z" style="fill:#455a64"></path><path d="M128.48,232.54l-3.51-26A22.26,22.26,0,0,1,111.38,200s2,6.3,10.32,9.84l4.71,22.83L123,269.27Z" style="fill:#37474f"></path><path d="M136.79,117.7l8.36.89c5.56,1.36,8.06,3.81,8.63,8.73a38.47,38.47,0,0,1-.29,16c-1.76,6.92-6.44,23.87-6.44,23.87s6.07,15.25,8.94,23c-19.73,12.87-44.09,7.79-52.27,0,.69-7.37,3.3-14.22,3.88-20.79,0,0-.43-10.26-1.24-14.71-6.24-6.81-5.45-13.33-2.64-18.59,5.17-9.7,13-18.23,15.5-18.22Z" style="fill:#FF7A83"></path><path d="M136.79,117.7l8.36.89c5.56,1.36,8.06,3.81,8.63,8.73a38.47,38.47,0,0,1-.29,16c-1.76,6.92-6.44,23.87-6.44,23.87s6.07,15.25,8.94,23c-19.73,12.87-44.09,7.79-52.27,0,.69-7.37,3.3-14.22,3.88-20.79,0,0-.43-10.26-1.24-14.71-6.24-6.81-5.45-13.33-2.64-18.59,5.17-9.7,13-18.23,15.5-18.22Z" style="fill:#fff;opacity:0.6000000000000001"></path><path d="M121.59,111.82c-2.48,0-2.76.42-4.9,3.27-1.27,1.7-9.29,14.93-9.29,14.93s6.39-8.39,11.2-10.93a10.65,10.65,0,0,1,3-1.19Z" style="fill:#ebebeb"></path><path d="M137.26,117.7s-6.89,18.12-8.46,30.42,3.82,49.45,4.65,71.47c.61,16,2.13,39.12,2.13,39.12a57.1,57.1,0,0,0,14.67-.46c8.1-1.53,10.61-2.86,15.24-5.88,0,0-4-40.27-6-55.92-1.85-14.73-9.77-29.26-9.77-29.26l9.52-39.41s-.47-6.64-6.73-8.5C146.58,117.51,137.26,117.7,137.26,117.7Z" style="fill:#fafafa"></path><path d="M149.45,154.53s-1.29-4.69-3.07-12.7-1.5-12.65-.89-16.15l10.35,15.14-6.1,26.36h0a100.14,100.14,0,0,1,9.11,25.17h0c-6.23-17.63-13.06-22.92-13.06-22.92Z" style="fill:#f5f5f5"></path><path d="M139.86,140c0-.76.07-2.41.2-4.48.65-10.16.95-19.33-2.48-20.07l-.3,1.4c2.5.54,1.67,13.64,1.36,18.58-.14,2.12-.25,3.79-.21,4.63Z" style="fill:#FF7A83"></path><path d="M158.67,222.29c1.33-2.53,1.31-4.35,3.38-6.64a7.29,7.29,0,0,0,1.8-3.36,23.85,23.85,0,0,0,.49-6.19l11.86.18c.09,3.94.62,9.6-.12,13.8-1.89,10.63-4,15.16-8.46,16.4-7.13,2-9.05-1-6.77-6.38a26,26,0,0,0,2-7,13.27,13.27,0,0,1-2.58,2.53,2.54,2.54,0,0,1-3.44-.21C156.48,225,157.64,224.26,158.67,222.29Z" style="fill:#ffa8a7"></path><path d="M147.11,118.22s7.66-.48,12.15,3.19,7.27,13.93,10.56,24.19,6.24,20.24,7.32,27.43c.91,6-.27,37.83-.27,37.83a26.23,26.23,0,0,1-13.71-2.42L160,174.5l-12.84-34.85A33.26,33.26,0,0,1,147.11,118.22Z" style="fill:#f0f0f0"></path><polygon points="51.97 142.76 89.97 156.17 100.43 201.39 99.58 202.29 63.45 188.8 51.12 143.66 51.97 142.76" style="fill:#FF7A83"></polygon><polygon points="89.12 157.07 99.58 202.29 100.43 201.39 89.97 156.17 89.12 157.07" style="opacity:0.35000000000000003"></polygon><polygon points="51.12 143.66 89.12 157.07 99.58 202.29 63.45 188.8 51.12 143.66" style="opacity:0.25"></polygon><g style="opacity:0.2"><path d="M69.1,179.61c-.35.88-3.26,2.84-7.48,2.49l-.71-2.61Z"></path></g><g style="opacity:0.1"><path d="M62.56,152.93l-.31-1.52c-.17-.84,2.06-.4,5,1l6.86,2.08c2.93,1.38,5.69,2.41,5.86,3.24l.32,1.52Z"></path></g><path d="M60.31,146.07c-.11-.53.75-.42,2-.1l2.19.75s-.9-2.2,4.28-.8c5.7,1.55,5.82,4.39,5.82,4.39a24.87,24.87,0,0,0,2.74,1c1.89.62,2.1,1,2.26,1.52l.28,1L60.48,147S60.42,146.59,60.31,146.07Z" style="fill:#37474f"></path><path d="M62.34,149c1.8.81,2.54,1.21,2.81,2.5.3,1.47.37,2.09.37,2.09l10.09,4s-.55-2.17-.68-2.9,1.2-.73,2.94.08l-.41-1.81-15.69-5.83Z" style="fill:#37474f"></path><path d="M62,153l-.31-1.51c-.17-.84,2.06-.4,5,1l6.86,2.07c2.92,1.38,5.69,2.41,5.86,3.25l.31,1.52Z" style="fill:#37474f"></path><path d="M55.34,159.13s1.35,5,1.7,6.22,6.58,4.12,9.7,4.51c6,.75,6.63,2,5.2,6.27-1.32,3.9-5.2,5.37-10.58,4.74A9.76,9.76,0,0,1,54,174.43c-1.75-5-.81-10.31-1.5-13.23S53.83,157.4,55.34,159.13Z" style="fill:#ffa8a7"></path><path d="M151.32,73.33,146,77.7a3.24,3.24,0,0,1,.45-4.69A3.55,3.55,0,0,1,151.32,73.33Z" style="fill:#455a64"></path><path d="M137.36,112.48c0-3.35,7.81-8.37,11.84-15.43s2-18.63-3.5-20.41c0,0-.11-10.54-14.33-13.34s-18.68-5.94-21.2-6.39-3,8.51.31,10.86a19.59,19.59,0,0,1-6.4-4.1c-2.07-2-2.89,8.42,1.58,12.08,0,0-3.7,2.17-3.25,7.65a9.15,9.15,0,0,0,7.07,8.51Z" style="fill:#455a64"></path><path d="M113.11,73c-3.43,1.49-6.69,6.73-6.64,21.4,0,12.43,3.85,15.58,5.78,16.5s5.68.46,9.34-.11l0,7.15s-2.73,2.69-1.78,4.39,4.52,3.12,10,1.39c6.25-2,7.68-6.13,7.68-6.13l.12-15.64s2.11,2.21,5.8-1c3.06-2.67,4.16-7.26,1.86-9.78s-5.24-2.72-7.89.1l-1.92-1c-3.39-.4-8.42-1-12.06-2.82C114,82.58,113,77.36,113.11,73Z" style="fill:#ffa8a7"></path><path d="M137.36,89.17l0,6.91A3.25,3.25,0,0,1,134,92.73,3.57,3.57,0,0,1,137.36,89.17Z" style="fill:#455a64"></path><path d="M112.78,90.14a1.67,1.67,0,0,1-1.59,1.76,1.71,1.71,0,1,1,1.59-1.76Z" style="fill:#263238"></path><path d="M125.94,90.87a1.79,1.79,0,0,1-1.7,1.9,1.84,1.84,0,1,1,1.7-1.9Z" style="fill:#263238"></path><path d="M123.25,101.05l-5.32,1.66a2.71,2.71,0,0,0,3.4,2A3.06,3.06,0,0,0,123.25,101.05Z" style="fill:#f28f8f"></path><path d="M108.41,87.07l4.26-1.69a2.21,2.21,0,0,0-3-1.31A2.39,2.39,0,0,0,108.41,87.07Z" style="fill:#263238"></path><polygon points="116.81 88.79 117.02 98.98 111.55 97.76 116.81 88.79" style="fill:#f28f8f"></polygon><path d="M121.59,110.75c3.85-.45,11.79-2.66,13.08-5.88a8.49,8.49,0,0,1-2.84,4.09c-2.4,2.06-10.25,4.2-10.25,4.2Z" style="fill:#f28f8f"></path><path d="M137.54,111.87c1-.2,1.91.23,2.73,1.63s2.63,4.34,2.63,4.34.93,9.76,0,12.18c-.81,2.11-9.73,10-9.73,10s2.33,8.77,2.41,11.64-5.53,13.8-6.16,19.39c0,0-1.76-17.57-.94-23.88,1.44-11,6.59-25.13,9-29.62Z" style="fill:#ebebeb"></path><path d="M137.77,172.25a7.74,7.74,0,0,1-4.38,1.28l.13-1a6.23,6.23,0,0,0,3.37-.94,12.27,12.27,0,0,1-2.51-2.69c-1.43-2.22-3.68-17.37-2.3-20.74,1.14-2.8,4.49-8.87,7-8.87h.06c2.55.11,5.41,6.53,6.32,9.44,1.09,3.47-2.44,18.38-4.05,20.47a12.71,12.71,0,0,1-2.73,2.47,6.36,6.36,0,0,0,3.28,1.22l0,1h-.12A8,8,0,0,1,137.77,172.25ZM133,148.54c-1.26,3.1.9,17.76,2.22,19.81a11.93,11.93,0,0,0,2.6,2.7,11.56,11.56,0,0,0,2.82-2.47c1.5-1.93,4.9-16.36,3.9-19.55-1.23-3.9-3.91-8.67-5.41-8.73h0C137.59,140.29,134.55,144.78,133,148.54Z" style="fill:#455a64"></path><path d="M132,173a1.47,1.47,0,0,0,1.41,1.53,1.49,1.49,0,0,0,1.54-1.41,1.48,1.48,0,0,0-3-.12Z" style="fill:#263238"></path><path d="M140.54,173.33a1.47,1.47,0,0,0,2.94.13,1.47,1.47,0,1,0-2.94-.13Z" style="fill:#263238"></path><path d="M131.83,154.73l.84-.06a.33.33,0,0,0,.31-.35,16.62,16.62,0,0,1,.26-5.68c1.48-3.62,4.54-8.15,5.88-8.09s4,4.83,5.18,8.56c.27.85.18,2.91-.22,5.68a.33.33,0,0,0,.27.38l.84.13a.33.33,0,0,0,.37-.29c.46-3.11.52-5.25.17-6.35-.62-2-3.57-9.49-6.54-9.62s-6.55,7.09-7.34,9c-.44,1.07-.57,3.2-.37,6.34A.33.33,0,0,0,131.83,154.73Z" style="fill:#FF7A83"></path></g></g></svg>