<svg xmlns="http://www.w3.org/2000/svg" viewBox="0 0 500 500"><g id="freepik--Screen--inject-218"><path d="M183.11,55.24l-21.07,0a5.24,5.24,0,0,0-5.12,5.35v3.82a5.24,5.24,0,0,1-5.12,5.35l-41.06,0a5.24,5.24,0,0,1-5.12-5.35V60.54a5.24,5.24,0,0,0-5.11-5.35H74.66A16.58,16.58,0,0,0,58.07,71.75l0,265.9a16.59,16.59,0,0,0,16.57,16.58l108.44.06a16.57,16.57,0,0,0,16.59-16.57l0-265.9A16.57,16.57,0,0,0,183.11,55.24Z" style="fill:#fff"></path><path d="M183.11,55.24h.56a12.7,12.7,0,0,1,1.68.13,15.67,15.67,0,0,1,6.22,2.15,16,16,0,0,1,3.78,3.07,16.58,16.58,0,0,1,3.16,4.94,17.1,17.1,0,0,1,1.24,6.73q0,3.67,0,7.82c0,22.09,0,54,.06,93.53s0,86.51,0,138.72v24.85a18.1,18.1,0,0,1-.63,5.06,16.83,16.83,0,0,1-2.12,4.67,18.2,18.2,0,0,1-3.45,3.83,16.89,16.89,0,0,1-9.58,3.72c-3.47.1-6.92,0-10.42,0H152.53l-43.33,0H75.85a17.47,17.47,0,0,1-10.8-3,17,17,0,0,1-6.57-9.07,18.15,18.15,0,0,1-.69-5.61V309q0-22,0-43.34c0-28.42,0-55.82,0-81.93s0-50.92,0-74.14q0-17.41,0-33.6V72c0-.67.06-1.35.1-2s.17-1.33.34-2a16.87,16.87,0,0,1,3.48-7,16.8,16.8,0,0,1,13.52-6h24.81a5.23,5.23,0,0,1,3.26.91,5.45,5.45,0,0,1,2,2.66,8.77,8.77,0,0,1,.34,3.28V63.5a11.76,11.76,0,0,0,0,1.58,5.13,5.13,0,0,0,1.24,2.77,4.84,4.84,0,0,0,2.53,1.58,5.71,5.71,0,0,0,1.49.14h7.51l21.86,0h9.64c.76,0,1.54,0,2.26,0a4.84,4.84,0,0,0,2-.71,5.23,5.23,0,0,0,2.32-3.34,9,9,0,0,0,.13-2c0-.67,0-1.33,0-2a10.4,10.4,0,0,1,.08-1.93,5.66,5.66,0,0,1,.63-1.77,5.21,5.21,0,0,1,2.64-2.34,8.37,8.37,0,0,1,3.3-.36l10.75,0,6.61,0,2.26,0-2.26,0-6.61,0H163.49a8.16,8.16,0,0,0-3.24.36,5,5,0,0,0-2.56,2.27,5.47,5.47,0,0,0-.6,1.73,9.94,9.94,0,0,0-.08,1.9v2a8.94,8.94,0,0,1-.13,2.05,5.45,5.45,0,0,1-2.4,3.46,5,5,0,0,1-2.11.75c-.77.07-1.51,0-2.28,0h-39a6.4,6.4,0,0,1-1.56-.15A5.22,5.22,0,0,1,106.84,68a5.52,5.52,0,0,1-1.3-2.92,11.07,11.07,0,0,1-.06-1.62V61.89a8.65,8.65,0,0,0-.32-3.18,5.23,5.23,0,0,0-1.93-2.52,5,5,0,0,0-3.09-.85H75.33a17,17,0,0,0-7.23,1.37,16.81,16.81,0,0,0-6,4.51,16.63,16.63,0,0,0-3.41,6.88c-.17.63-.21,1.29-.33,1.93s-.08,1.31-.09,2v4q0,16.17,0,33.6c0,23.22,0,48,0,74.14s0,53.51,0,81.93v71.1a17.66,17.66,0,0,0,.67,5.47,16.52,16.52,0,0,0,6.39,8.83A17.07,17.07,0,0,0,75.85,354H87l22.16,0,43.33,0,21.11,0c3.48,0,7,.06,10.4,0a16.3,16.3,0,0,0,9.31-3.62,17.34,17.34,0,0,0,3.37-3.73,16.61,16.61,0,0,0,2.06-4.54,17.17,17.17,0,0,0,.62-4.94v-5q0-10,0-19.82c0-52.21.06-99.23.08-138.72s.07-71.44.09-93.53c0-2.76,0-5.37,0-7.82a16.94,16.94,0,0,0-1.21-6.67,16.43,16.43,0,0,0-3.11-4.93,16,16,0,0,0-3.75-3.06,15.76,15.76,0,0,0-6.17-2.18,11.8,11.8,0,0,0-1.68-.15Z" style="fill:#263238"></path><path d="M186.31,82.09c0,.07-2.74.15-6.12.18s-6.12,0-6.12-.08,2.74-.16,6.12-.18S186.31,82,186.31,82.09Z" style="fill:#263238"></path><path d="M186.34,85.22c0,.07-2.74.15-6.12.18s-6.12,0-6.12-.08,2.74-.15,6.12-.18S186.34,85.15,186.34,85.22Z" style="fill:#263238"></path><path d="M186.36,88.35c0,.07-2.74.15-6.12.18s-6.12,0-6.12-.08,2.74-.15,6.12-.18S186.36,88.28,186.36,88.35Z" style="fill:#263238"></path><path d="M75,91.92h.25l.71,0,2.61-.06-.07.07q0-.87,0-1.89c0-.35,0-.69,0-1.09a1,1,0,0,1,.87-.81c.42,0,.79,0,1.25,0a1,1,0,0,1,.86,1q0,1.32,0,2.76l-.12-.12,3.29,0-.12.12c0-1.32,0-2.7,0-4.1,0-.35,0-.7,0-1a1,1,0,0,0-.46-.78l-1.44-1.42-1.39-1.37-.67-.67c-.24-.22-.42-.45-.69-.51a.87.87,0,0,0-.75.15c-.2.17-.42.41-.62.6l-1.18,1.2c-.74.77-1.52,1.47-2.08,2.14A2.34,2.34,0,0,0,75,87.26v1.16c0,.72,0,1.34,0,1.88s0,.87,0,1.19,0,.43,0,.43a2.69,2.69,0,0,1,0-.39c0-.32,0-.71,0-1.18s0-1.17,0-1.89c0-.37,0-.77,0-1.18,0-.21,0-.43,0-.65a1.42,1.42,0,0,1,.18-.69c.61-.75,1.34-1.41,2.09-2.2l1.17-1.21c.21-.2.39-.41.64-.63a1.14,1.14,0,0,1,1-.19,1.89,1.89,0,0,1,.8.57l.67.66,1.4,1.37,1.44,1.42a2.06,2.06,0,0,1,.37.4,1,1,0,0,1,.17.55c0,.35,0,.7,0,1q0,2.11,0,4.11V92h-.12l-3.3,0h-.12v-.12c0-1,0-1.88,0-2.76a.78.78,0,0,0-.66-.8c-.38,0-.83,0-1.2,0a.82.82,0,0,0-.71.64c0,.34,0,.72,0,1.06v2h-.07l-2.66,0h-.69C75.06,91.93,75,91.93,75,91.92Z" style="fill:#263238"></path><rect x="58.53" y="118.79" width="140.57" height="34.58" style="fill:#ebebeb"></rect><rect x="58.53" y="192.34" width="140.57" height="34.58" style="fill:#ebebeb"></rect><path d="M91.26,143.12a62.9,62.9,0,0,1-.17-6.47,63.06,63.06,0,0,1,.17-6.47,58.17,58.17,0,0,1,.18,6.47A58,58,0,0,1,91.26,143.12Z" style="fill:#263238"></path><path d="M90.8,177.9a63.06,63.06,0,0,1-.17-6.47A63.06,63.06,0,0,1,90.8,165a58.17,58.17,0,0,1,.18,6.47A58.17,58.17,0,0,1,90.8,177.9Z" style="fill:#263238"></path><rect x="104.66" y="173.19" width="50.81" height="4.82" style="fill:#FF725E"></rect><path d="M91.26,216.53a63.06,63.06,0,0,1-.17-6.47,63.06,63.06,0,0,1,.17-6.47,58.17,58.17,0,0,1,.18,6.47A58.17,58.17,0,0,1,91.26,216.53Z" style="fill:#263238"></path><rect x="105.12" y="211.83" width="31.65" height="4.82" style="fill:#FF725E"></rect><rect x="105.12" y="138.6" width="50.89" height="4.7" style="fill:#FF725E"></rect><path d="M156,143.3s0-.11,0-.31,0-.51,0-.89c0-.78,0-1.92,0-3.38l.07.07c-8.48.06-28.06.11-50.85.11h0s.33-.33.17-.18h0v4.56l-.17-.17,36,.07,10.82.06,2.94,0h1l-.25,0H155l-2.9,0-10.78.05-36.18.08h-.18v-4.74h0c-.15.16.22-.21.18-.17h0c22.79,0,42.37,0,50.85.1H156v.07c0,1.48,0,2.63,0,3.42,0,.38,0,.66,0,.88A2.62,2.62,0,0,1,156,143.3Z" style="fill:#263238"></path><path d="M155.51,177.9s0-.11,0-.31,0-.51,0-.89c0-.79,0-1.93,0-3.38l.07.07c-8.48.06-28.06.1-50.85.1h0l.17-.17h0v4.57l-.17-.18,36.05.08,10.82,0,2.94,0,.77,0h-.72l-2.9,0-10.78.05-36.18.07h-.18v-4.74h0l.18-.18h0c22.79,0,42.37,0,50.85.11h.07v.07c0,1.47,0,2.62,0,3.42,0,.37,0,.66,0,.87S155.51,177.9,155.51,177.9Z" style="fill:#263238"></path><path d="M156,216.53s0-.11,0-.31,0-.51,0-.89c0-.79,0-1.92,0-3.38l.07.07c-8.48.06-28.06.1-50.85.1h0l.17-.17h0v4.57l-.17-.17,36,.07,10.82,0,2.94,0h0l-2.9,0-10.78,0-36.18.07h-.18V212h0c-.15.16.22-.21.18-.18h0c22.79,0,42.37,0,50.85.11H156V212c0,1.47,0,2.62,0,3.42,0,.37,0,.66,0,.87S156,216.53,156,216.53Z" style="fill:#263238"></path><path d="M187.24,101.83a1,1,0,1,1-1-1A1,1,0,0,1,187.24,101.83Z" style="fill:#263238"></path><path d="M187.24,104.45a1,1,0,1,1-1-1A1,1,0,0,1,187.24,104.45Z" style="fill:#263238"></path><path d="M187.24,107.21a1,1,0,1,1-1-1A1,1,0,0,1,187.24,107.21Z" style="fill:#263238"></path><path d="M106.48,131.47l.21-.41a2.57,2.57,0,0,0,1.69.62c1,0,1.37-.41,1.37-.91,0-1.4-3.14-.54-3.14-2.43,0-.75.58-1.4,1.88-1.4a2.93,2.93,0,0,1,1.58.45l-.18.43a2.67,2.67,0,0,0-1.4-.42c-.94,0-1.35.42-1.35.93,0,1.4,3.14.55,3.14,2.41,0,.75-.6,1.39-1.9,1.39A2.79,2.79,0,0,1,106.48,131.47Z" style="fill:#263238"></path><path d="M114.5,128.25l-1.92,4.3c-.32.75-.73,1-1.28,1a1.28,1.28,0,0,1-.93-.35l.24-.38a1,1,0,0,0,.7.29c.34,0,.58-.16.8-.64l.16-.38-1.71-3.83h.54l1.44,3.26,1.45-3.26Z" style="fill:#263238"></path><path d="M118.76,129.87v2.22h-.52v-2.17a1.07,1.07,0,0,0-1.15-1.23,1.26,1.26,0,0,0-1.34,1.39v2h-.52v-3.84h.5V129a1.59,1.59,0,0,1,1.45-.74A1.47,1.47,0,0,1,118.76,129.87Z" style="fill:#263238"></path><path d="M119.8,130.17a1.89,1.89,0,0,1,2-1.95,1.67,1.67,0,0,1,1.5.76l-.38.27a1.29,1.29,0,0,0-1.12-.57,1.5,1.5,0,0,0,0,3,1.31,1.31,0,0,0,1.12-.56l.38.26a1.69,1.69,0,0,1-1.5.76A1.89,1.89,0,0,1,119.8,130.17Z" style="fill:#263238"></path><path d="M123.53,87.08v1.21h2.1v.84h-2.1v1.66h-1.06V86.24h3.44v.84Z" style="fill:#263238"></path><path d="M126.63,86.24h1.05v4.55h-1.05Z" style="fill:#263238"></path><path d="M128.76,86.24h1.05v3.69h2.28v.86h-3.33Z" style="fill:#263238"></path><path d="M136.2,89.94v.85h-3.52V86.24h3.44v.84h-2.39v1h2.11v.82h-2.11v1Z" style="fill:#263238"></path><path d="M136.68,90.34l.36-.79a2.65,2.65,0,0,0,1.5.47c.62,0,.88-.21.88-.49,0-.85-2.65-.26-2.65-2,0-.78.63-1.42,1.92-1.42a3.12,3.12,0,0,1,1.58.4l-.33.8a2.53,2.53,0,0,0-1.26-.35c-.62,0-.86.23-.86.52,0,.83,2.64.26,2.64,1.93,0,.76-.63,1.41-1.93,1.41A3.25,3.25,0,0,1,136.68,90.34Z" style="fill:#263238"></path><path d="M106.48,166.9l.21-.42a2.52,2.52,0,0,0,1.69.62c1,0,1.37-.4,1.37-.9,0-1.41-3.14-.54-3.14-2.43,0-.75.58-1.4,1.88-1.4a2.84,2.84,0,0,1,1.58.45l-.18.43a2.59,2.59,0,0,0-1.4-.42c-.94,0-1.35.41-1.35.92,0,1.4,3.14.56,3.14,2.42,0,.75-.6,1.39-1.9,1.39A2.79,2.79,0,0,1,106.48,166.9Z" style="fill:#263238"></path><path d="M114.5,163.68,112.58,168c-.32.76-.73,1-1.28,1a1.33,1.33,0,0,1-.93-.35l.24-.39a1,1,0,0,0,.7.29c.34,0,.58-.16.8-.64l.16-.37-1.71-3.83h.54l1.44,3.26,1.45-3.26Z" style="fill:#263238"></path><path d="M118.76,165.29v2.23h-.52v-2.18a1.07,1.07,0,0,0-1.15-1.22,1.26,1.26,0,0,0-1.34,1.38v2h-.52v-3.84h.5v.71a1.59,1.59,0,0,1,1.45-.74A1.47,1.47,0,0,1,118.76,165.29Z" style="fill:#263238"></path><path d="M119.8,165.6a1.89,1.89,0,0,1,2-1.95,1.67,1.67,0,0,1,1.5.76l-.38.26a1.29,1.29,0,0,0-1.12-.57,1.5,1.5,0,0,0,0,3,1.29,1.29,0,0,0,1.12-.56l.38.26a1.67,1.67,0,0,1-1.5.76A1.89,1.89,0,0,1,119.8,165.6Z" style="fill:#263238"></path><path d="M106.48,206.18l.21-.41a2.52,2.52,0,0,0,1.69.62c1,0,1.37-.4,1.37-.91,0-1.4-3.14-.54-3.14-2.43,0-.75.58-1.4,1.88-1.4a2.85,2.85,0,0,1,1.58.46l-.18.43a2.6,2.6,0,0,0-1.4-.43c-.94,0-1.35.42-1.35.93,0,1.4,3.14.55,3.14,2.41,0,.76-.6,1.4-1.9,1.4A2.75,2.75,0,0,1,106.48,206.18Z" style="fill:#263238"></path><path d="M114.5,203l-1.92,4.29c-.32.75-.73,1-1.28,1a1.33,1.33,0,0,1-.93-.35l.24-.39a1,1,0,0,0,.7.29c.34,0,.58-.16.8-.64l.16-.37L110.56,203h.54l1.44,3.26L114,203Z" style="fill:#263238"></path><path d="M118.76,204.58v2.22h-.52v-2.17a1.07,1.07,0,0,0-1.15-1.23,1.26,1.26,0,0,0-1.34,1.39v2h-.52V203h.5v.7a1.6,1.6,0,0,1,1.45-.73A1.47,1.47,0,0,1,118.76,204.58Z" style="fill:#263238"></path><path d="M119.8,204.89a1.89,1.89,0,0,1,2-1.95,1.65,1.65,0,0,1,1.5.76l-.38.26a1.29,1.29,0,0,0-1.12-.57,1.5,1.5,0,0,0,0,3,1.29,1.29,0,0,0,1.12-.56l.38.26a1.67,1.67,0,0,1-1.5.76A1.89,1.89,0,0,1,119.8,204.89Z" style="fill:#263238"></path><path d="M180.86,216.47a.5.5,0,0,1-.11-1,5.18,5.18,0,0,0-1.11-10.24.5.5,0,0,1,0-1A6.18,6.18,0,0,1,181,216.46Z" style="fill:#FF725E"></path><path d="M178.43,216.47h-.1A6.18,6.18,0,0,1,176.69,205a.5.5,0,1,1,.48.88,5.18,5.18,0,0,0,1.37,9.61.5.5,0,0,1,.38.6A.49.49,0,0,1,178.43,216.47Z" style="fill:#FF725E"></path><path d="M180.39,206.79a.47.47,0,0,1-.35-.15l-1.5-1.51a.49.49,0,0,1,0-.69l1.5-1.59a.49.49,0,0,1,.7,0,.5.5,0,0,1,0,.71l-1.16,1.23,1.15,1.16a.5.5,0,0,1,0,.71A.47.47,0,0,1,180.39,206.79Z" style="fill:#FF725E"></path><path d="M176.79,217.66a.51.51,0,0,1-.46-.3.5.5,0,0,1,.26-.66l1.62-.72-.92-1.8a.5.5,0,0,1,.22-.68.51.51,0,0,1,.67.22l1.16,2.27a.51.51,0,0,1,0,.4.5.5,0,0,1-.26.29l-2.11.94A.65.65,0,0,1,176.79,217.66Z" style="fill:#FF725E"></path><path d="M186.6,171.13a7.14,7.14,0,1,1-7.14-7.14A7.14,7.14,0,0,1,186.6,171.13Z" style="fill:#FF725E"></path><polygon points="175.43 171.28 176.48 170.23 178.52 172.04 182.51 168.19 183.49 169.25 178.37 174.07 175.43 171.28" style="fill:#fff"></polygon><path d="M186.6,136.06a7.14,7.14,0,1,1-7.14-7.14A7.15,7.15,0,0,1,186.6,136.06Z" style="fill:#FF725E"></path><polygon points="175.43 136.22 176.48 135.16 178.52 136.97 182.51 133.13 183.49 134.18 178.37 139 175.43 136.22" style="fill:#fff"></polygon><rect x="66.67" y="130.15" width="16.84" height="13.47" rx="1.94" style="fill:#FF725E"></rect><path d="M66.67,133.52v-3.33a1.68,1.68,0,0,1,1.68-1.68H72a1.69,1.69,0,0,1,1.58,1.1l.74,2Z" style="fill:#FF725E"></path><rect x="66.67" y="164.67" width="16.84" height="13.47" rx="1.94" style="fill:#FF725E"></rect><path d="M66.67,168v-3.33A1.68,1.68,0,0,1,68.35,163H72a1.69,1.69,0,0,1,1.58,1.1l.74,2Z" style="fill:#FF725E"></path><rect x="66.67" y="205.56" width="16.84" height="13.47" rx="1.94" style="fill:#FF725E"></rect><path d="M66.67,208.93V205.6a1.68,1.68,0,0,1,1.68-1.68H72a1.69,1.69,0,0,1,1.58,1.1l.74,2Z" style="fill:#FF725E"></path><rect x="58.53" y="269.41" width="140.57" height="34.58" style="fill:#ebebeb"></rect><path d="M90.8,255a62.78,62.78,0,0,1-.17-6.46A62.9,62.9,0,0,1,90.8,242,58,58,0,0,1,91,248.5,57.91,57.91,0,0,1,90.8,255Z" style="fill:#263238"></path><rect x="104.66" y="250.26" width="43" height="4.82" style="fill:#FF725E"></rect><path d="M91.26,293.6a63.06,63.06,0,0,1-.17-6.47,62.9,62.9,0,0,1,.17-6.47,58,58,0,0,1,.18,6.47A58.17,58.17,0,0,1,91.26,293.6Z" style="fill:#263238"></path><rect x="105.12" y="288.89" width="31.65" height="4.82" style="fill:#FF725E"></rect><path d="M155.51,255s0-.11,0-.31,0-.51,0-.89c0-.78,0-1.92,0-3.38l.07.07c-8.48.06-28.06.11-50.85.11h0s.33-.33.17-.18h0V255l-.17-.17,36.05.07,10.82.06,2.94,0h1l-.25,0h-.74l-2.9,0-10.78.05-36.18.08h-.18V250.4h0c-.15.16.22-.21.18-.17h0c22.79,0,42.37,0,50.85.1h.07v.07c0,1.48,0,2.63,0,3.42,0,.38,0,.67,0,.88A2.62,2.62,0,0,1,155.51,255Z" style="fill:#263238"></path><path d="M156,293.6s0-.11,0-.31,0-.52,0-.89c0-.79,0-1.93,0-3.39l.07.07c-8.48.07-28.06.11-50.85.11h0l.17-.17h0v4.57l-.17-.18,36,.08,10.82.05,2.94,0,.77,0H155l-2.9,0-10.78.05-36.18.07h-.18V289h0l.18-.18h0c22.79,0,42.37,0,50.85.11H156V289c0,1.48,0,2.63,0,3.43,0,.37,0,.66,0,.87S156,293.6,156,293.6Z" style="fill:#263238"></path><path d="M106.48,244l.21-.41a2.57,2.57,0,0,0,1.69.62c1,0,1.37-.4,1.37-.91,0-1.4-3.14-.54-3.14-2.43,0-.75.58-1.4,1.88-1.4a2.93,2.93,0,0,1,1.58.45l-.18.44a2.6,2.6,0,0,0-1.4-.43c-.94,0-1.35.42-1.35.93,0,1.4,3.14.55,3.14,2.41,0,.75-.6,1.4-1.9,1.4A2.75,2.75,0,0,1,106.48,244Z" style="fill:#263238"></path><path d="M114.5,240.74l-1.92,4.3c-.32.75-.73,1-1.28,1a1.28,1.28,0,0,1-.93-.35l.24-.38a1,1,0,0,0,.7.29c.34,0,.58-.16.8-.64l.16-.37-1.71-3.84h.54l1.44,3.27,1.45-3.27Z" style="fill:#263238"></path><path d="M118.76,242.36v2.22h-.52v-2.17a1.07,1.07,0,0,0-1.15-1.23,1.26,1.26,0,0,0-1.34,1.39v2h-.52v-3.84h.5v.71a1.6,1.6,0,0,1,1.45-.73A1.47,1.47,0,0,1,118.76,242.36Z" style="fill:#263238"></path><path d="M119.8,242.66a1.88,1.88,0,0,1,2-1.94,1.66,1.66,0,0,1,1.5.75l-.38.27a1.29,1.29,0,0,0-1.12-.57,1.5,1.5,0,0,0,0,3,1.31,1.31,0,0,0,1.12-.56l.38.26a1.67,1.67,0,0,1-1.5.76A1.89,1.89,0,0,1,119.8,242.66Z" style="fill:#263238"></path><path d="M106.48,283.25l.21-.42a2.52,2.52,0,0,0,1.69.62c1,0,1.37-.4,1.37-.9,0-1.4-3.14-.54-3.14-2.43,0-.75.58-1.4,1.88-1.4a2.93,2.93,0,0,1,1.58.45l-.18.43a2.67,2.67,0,0,0-1.4-.42c-.94,0-1.35.42-1.35.93,0,1.4,3.14.55,3.14,2.41,0,.75-.6,1.39-1.9,1.39A2.79,2.79,0,0,1,106.48,283.25Z" style="fill:#263238"></path><path d="M114.5,280l-1.92,4.3c-.32.75-.73,1-1.28,1a1.28,1.28,0,0,1-.93-.35l.24-.38a1,1,0,0,0,.7.29c.34,0,.58-.16.8-.65l.16-.37L110.56,280h.54l1.44,3.26L114,280Z" style="fill:#263238"></path><path d="M118.76,281.65v2.22h-.52V281.7a1.07,1.07,0,0,0-1.15-1.23,1.26,1.26,0,0,0-1.34,1.39v2h-.52V280h.5v.71a1.58,1.58,0,0,1,1.45-.73A1.46,1.46,0,0,1,118.76,281.65Z" style="fill:#263238"></path><path d="M119.8,282a1.88,1.88,0,0,1,2-1.94,1.66,1.66,0,0,1,1.5.75l-.38.27a1.29,1.29,0,0,0-1.12-.57,1.5,1.5,0,0,0,0,3,1.31,1.31,0,0,0,1.12-.56l.38.26a1.69,1.69,0,0,1-1.5.76A1.89,1.89,0,0,1,119.8,282Z" style="fill:#263238"></path><path d="M180.86,293.54a.5.5,0,0,1-.49-.4.49.49,0,0,1,.38-.59,5.18,5.18,0,0,0-1.11-10.24.5.5,0,0,1-.5-.5.5.5,0,0,1,.5-.5A6.18,6.18,0,0,1,181,293.53Z" style="fill:#FF725E"></path><path d="M178.43,293.54h-.1a6.18,6.18,0,0,1-1.64-11.47.5.5,0,0,1,.68.2.51.51,0,0,1-.2.68,5.18,5.18,0,0,0,1.37,9.61.5.5,0,0,1,.38.6A.49.49,0,0,1,178.43,293.54Z" style="fill:#FF725E"></path><path d="M180.39,283.85a.5.5,0,0,1-.35-.14l-1.5-1.51a.49.49,0,0,1,0-.69l1.5-1.59a.5.5,0,1,1,.72.68l-1.16,1.24,1.15,1.16a.5.5,0,0,1-.35.85Z" style="fill:#FF725E"></path><path d="M176.79,294.72a.52.52,0,0,1-.46-.29.5.5,0,0,1,.26-.66l1.62-.72-.92-1.81a.5.5,0,1,1,.89-.45l1.16,2.27a.51.51,0,0,1,0,.4.53.53,0,0,1-.26.29l-2.11.93A.45.45,0,0,1,176.79,294.72Z" style="fill:#FF725E"></path><path d="M180.86,256.42a.5.5,0,0,1-.49-.39.49.49,0,0,1,.38-.59,5.19,5.19,0,0,0-1.11-10.25.5.5,0,0,1-.5-.5.5.5,0,0,1,.5-.5A6.18,6.18,0,0,1,181,256.41Z" style="fill:#FF725E"></path><path d="M178.43,256.43h-.1a6.19,6.19,0,0,1-1.64-11.48.51.51,0,0,1,.68.2.5.5,0,0,1-.2.68,5.18,5.18,0,0,0,1.37,9.62.5.5,0,0,1-.11,1Z" style="fill:#FF725E"></path><path d="M180.39,246.74a.47.47,0,0,1-.35-.15l-1.5-1.5a.5.5,0,0,1,0-.7l1.5-1.58a.49.49,0,0,1,.7,0,.5.5,0,0,1,0,.71l-1.16,1.24,1.15,1.16a.48.48,0,0,1,0,.7A.47.47,0,0,1,180.39,246.74Z" style="fill:#FF725E"></path><path d="M176.79,257.61a.51.51,0,0,1-.46-.3.5.5,0,0,1,.26-.66l1.62-.72-.92-1.8a.49.49,0,0,1,.22-.67.49.49,0,0,1,.67.22l1.16,2.27a.48.48,0,0,1,0,.39.47.47,0,0,1-.26.29l-2.11.94A.45.45,0,0,1,176.79,257.61Z" style="fill:#FF725E"></path><rect x="66.67" y="241.74" width="16.84" height="13.47" rx="1.94" style="fill:#FF725E"></rect><path d="M66.67,245.11v-3.33a1.68,1.68,0,0,1,1.68-1.68H72a1.69,1.69,0,0,1,1.58,1.1l.74,2Z" style="fill:#FF725E"></path><rect x="66.67" y="282.63" width="16.84" height="13.47" rx="1.94" style="fill:#FF725E"></rect><path d="M66.67,286v-3.33A1.68,1.68,0,0,1,68.35,281H72a1.69,1.69,0,0,1,1.58,1.1l.74,2Z" style="fill:#FF725E"></path><path d="M122.42,325.67a2.64,2.64,0,1,1-2.63-2.63A2.63,2.63,0,0,1,122.42,325.67Z" style="fill:#FF725E"></path><path d="M133.61,325.67A2.64,2.64,0,1,1,131,323,2.64,2.64,0,0,1,133.61,325.67Z" style="fill:#e0e0e0"></path><path d="M144.45,325.67a2.64,2.64,0,1,1-2.64-2.63A2.64,2.64,0,0,1,144.45,325.67Z" style="fill:#e0e0e0"></path></g><g id="freepik--Character--inject-218"><path d="M304.43,151.33c-.64-7.67-1.19-15.87-5.83-22a25.07,25.07,0,0,0-12.89-8.4,35.33,35.33,0,0,0-41.55,17.35c-5.17,9.82-5.44,21.4-5.59,32.49-.22,15.4-7.95,32.95-8.17,48.34l76-7.19C309.78,191.94,306.14,171.53,304.43,151.33Z" style="fill:#263238"></path><polygon points="304.71 244.93 297.92 275.32 301.14 295.71 226.48 295.71 231.36 200.51 249.97 198.92 295.45 206.6 304.71 244.93" style="fill:#FF725E"></polygon><path d="M285.72,206.05s19.45-1.78,28.71,11.45c5.67,8.1,13.63,26.69,13.63,26.69l-25.89,4.46Z" style="fill:#FF725E"></path><g style="opacity:0.30000000000000004"><path d="M259.69,234.81c-5.46,6.75-8,15.31-11.6,23.22-4.6,10.2-11,19.48-17.32,28.7-.47.69-1.12,1.46-2,1.36s-1.31-1.08-1.53-1.92a27.08,27.08,0,0,1,1.11-15.86,60.74,60.74,0,0,1,7.74-14.1,163.8,163.8,0,0,1,16.06-19.68,9.18,9.18,0,0,1,3.63-2.69,3.28,3.28,0,0,1,3.95,1.37"></path></g><g style="opacity:0.30000000000000004"><path d="M298.18,270l-3.78-14.91a11.12,11.12,0,0,0-1-2.88,11,11,0,0,0-2.64-2.8,11.9,11.9,0,0,0-4-2.53c-1.24-.38-2.61-.35-3.77-.93-1.59-.8-2.44-2.54-3.09-4.19-.5-1.27-.92-2.77-.2-3.93s2.15-1.4,3.45-1.43a15.75,15.75,0,0,1,14.39,8.85c1.94,4.15,1.94,8.91,1.9,13.49q0,6.14-.1,12.26"></path></g><path d="M274.3,270.62c0-.07,1,.1,2.65.23a31.33,31.33,0,0,0,6.37-.16,32.11,32.11,0,0,0,6.21-1.48c1.54-.54,2.47-1,2.5-.9s-.2.16-.61.38a16.12,16.12,0,0,1-1.78.82,25.67,25.67,0,0,1-6.26,1.63,26.28,26.28,0,0,1-6.46,0,17,17,0,0,1-1.93-.34A2,2,0,0,1,274.3,270.62Z" style="fill:#263238"></path><path d="M241.73,272c0-.12,10.6,2.89,23.59,6.72s23.5,7,23.47,7.16-10.6-2.89-23.6-6.72S241.69,272.08,241.73,272Z" style="fill:#263238"></path><g style="opacity:0.30000000000000004"><path d="M290.93,268.82a9.09,9.09,0,0,1-7.53,5.79,9.37,9.37,0,0,1-8.77-4.07,32.81,32.81,0,0,0,16.3-1.72"></path></g><g style="opacity:0.30000000000000004"><path d="M286,284.91l-.28.11c-6.66,1.19-12.91,0-19.3-2.28s-12.34-5.54-18.24-8.86Z"></path></g><path d="M250.3,139.59l0-4.76,28.6-5.08c8.81-.82,18.22,8.11,18.67,16.94.49,9.82.72,21.83-.53,29.13-2.52,14.69-13.82,16.43-13.82,16.43l-.38,18-15.89,44.19L249.79,206Z" style="fill:#ffbe9d"></path><path d="M292.17,158.39a1.9,1.9,0,0,1-1.85,1.88,1.8,1.8,0,0,1-1.92-1.73,1.89,1.89,0,0,1,1.84-1.88A1.82,1.82,0,0,1,292.17,158.39Z" style="fill:#263238"></path><path d="M294.34,152.91c-.24.24-1.66-.83-3.69-.85s-3.53,1-3.75.72.14-.55.79-1a5.15,5.15,0,0,1,3-.89,5,5,0,0,1,2.93,1C294.25,152.35,294.45,152.8,294.34,152.91Z" style="fill:#263238"></path><path d="M274.09,158.39a1.88,1.88,0,0,1-1.84,1.88,1.8,1.8,0,0,1-1.92-1.73,1.88,1.88,0,0,1,1.84-1.88A1.8,1.8,0,0,1,274.09,158.39Z" style="fill:#263238"></path><path d="M274.37,153.05c-.24.24-1.66-.84-3.69-.85s-3.53,1-3.75.72.14-.55.8-1a5.17,5.17,0,0,1,3-.88,5,5,0,0,1,2.93,1C274.28,152.49,274.48,152.94,274.37,153.05Z" style="fill:#263238"></path><path d="M281.56,168.2a13.08,13.08,0,0,1,3.3-.56c.52,0,1-.14,1.11-.5a2.74,2.74,0,0,0-.33-1.54c-.47-1.26-1-2.58-1.49-4-2.06-5.65-3.55-10.29-3.32-10.38s2.09,4.44,4.15,10.08l1.42,4a3,3,0,0,1,.25,2,1.29,1.29,0,0,1-.87.75,3.25,3.25,0,0,1-.88.11A13.45,13.45,0,0,1,281.56,168.2Z" style="fill:#263238"></path><path d="M283.17,192.29A39,39,0,0,1,263,186.75s4.85,10.37,20.1,9.2Z" style="fill:#eb996e"></path><path d="M280.64,173.08a3.67,3.67,0,0,0-3.26-1.4,3.38,3.38,0,0,0-2.33,1.21,2.12,2.12,0,0,0-.19,2.42,2.47,2.47,0,0,0,2.66.71,7.74,7.74,0,0,0,2.61-1.52,2.21,2.21,0,0,0,.59-.59.7.7,0,0,0,0-.76" style="fill:#eb996e"></path><path d="M275.56,169.53c.33,0,.31,2.19,2.18,3.78S282,174.68,282,175c0,.14-.53.42-1.52.44a5.5,5.5,0,0,1-3.53-1.28,4.83,4.83,0,0,1-1.69-3.17C275.16,170.06,275.41,169.52,275.56,169.53Z" style="fill:#263238"></path><path d="M274.89,147.32c-.2.55-2.23.26-4.61.52s-4.33.88-4.64.38c-.14-.24.21-.75,1-1.28a8.06,8.06,0,0,1,7.05-.69C274.55,146.62,275,147.05,274.89,147.32Z" style="fill:#263238"></path><path d="M294.36,145.94c-.36.46-1.76,0-3.44-.08s-3.11.27-3.43-.21c-.14-.24.09-.7.72-1.13a5,5,0,0,1,5.53.24C294.33,145.24,294.52,145.72,294.36,145.94Z" style="fill:#263238"></path><path d="M302.74,148.06c-2.7-5.65-5.49-11.42-10-15.75s-11.19-7-17.14-5l-.4.79a31.24,31.24,0,0,0,5.12,8.12c2.25,2.3,5.44,3.91,8.62,3.47l-1.58-2.94A46.5,46.5,0,0,0,302.74,148.06Z" style="fill:#263238"></path><path d="M310.23,408.15c.47,1.42-13.6,58.4-13.6,58.4H262.54l-1.35-54.14Z" style="fill:#ffbe9d"></path><path d="M248.16,412.41c-.47,2.83-12.63,54.14-12.63,54.14l-44.05-.24,10.81-58.16Z" style="fill:#ffbe9d"></path><path d="M302.47,295.71s9.86,16.37,11.32,32,3.15,99.12,3.15,99.12H194.31s20.77-113.1,31.52-123.08l.74-10.34Z" style="fill:#263238"></path><path d="M314.31,336.29c.09.11-26.52,20.54-59.42,45.61s-59.65,45.31-59.74,45.2,26.51-20.53,59.42-45.61S314.22,336.18,314.31,336.29Z" style="fill:#455a64"></path><path d="M315.4,364.93c.09.11-18,14-40.32,31.05s-40.55,30.76-40.64,30.65,18-14,40.33-31.06S315.32,364.81,315.4,364.93Z" style="fill:#455a64"></path><path d="M281.26,295.69c.08.11-15.7,12.28-35.25,27.18s-35.47,26.89-35.56,26.77,15.69-12.28,35.25-27.18S281.17,295.57,281.26,295.69Z" style="fill:#455a64"></path><path d="M309,309.27c.09.11-23.63,17.59-52.95,39S202.87,387,202.79,386.91s23.62-17.59,53-39S308.93,309.15,309,309.27Z" style="fill:#455a64"></path><path d="M316.19,393.81c.09.11-9.6,7.64-21.63,16.81s-21.85,16.51-21.94,16.4,9.59-7.64,21.63-16.82S316.1,393.7,316.19,393.81Z" style="fill:#455a64"></path><path d="M239.4,293.76a97,97,0,0,1-7.79,6.27,93.51,93.51,0,0,1-8.12,5.85c-.08-.11,3.41-2.92,7.8-6.27A99.05,99.05,0,0,1,239.4,293.76Z" style="fill:#455a64"></path><path d="M252.59,241.25S229.78,292,216.53,293.58c-6.68.79-10.75-2.86-12.19-9.79s3.35-52.33,3.35-52.33l22.94,6.38-1.74,8.79L242.62,233Z" style="fill:#ffbe9d"></path><path d="M231.36,200.51s-12.31,1.5-17.09,12-11.39,22.37-11.39,22.37l28.22,6.35s4-21.23,4.25-28.72C235.68,204.32,236,200.27,231.36,200.51Z" style="fill:#FF725E"></path><path d="M209.33,265.94a2,2,0,0,1,.32-.35l1-1,3.6-3.5c3-3,7.22-7.06,11.81-11.62l11.71-11.72,3.54-3.57,1-1a2.48,2.48,0,0,1,.36-.31,2.13,2.13,0,0,1-.29.38l-.92,1c-.79.88-2,2.13-3.43,3.67-2.92,3.07-7,7.27-11.62,11.83s-8.81,8.62-11.91,11.52c-1.55,1.45-2.82,2.61-3.7,3.4l-1,.89C209.48,265.86,209.35,266,209.33,265.94Z" style="fill:#eb996e"></path><path d="M272.74,201.82l-8.92,3.48s-4.91,0-5.54,1.63L257,210.09s-3,.76-3.64,2.44-5.86,13.06-5.86,13.06l-4.9,7.36,10,8.3a22.48,22.48,0,0,1,4.11-4.11c2.06-1.42,10.6-8.59,10.76-10.54s4.77-12.91,4.82-14.07.17-3.7-1-3.07-2.74,3.8-2.74,3.8l1.11-4.28a6.74,6.74,0,0,0,1.63-1.58,6.63,6.63,0,0,0,1.34-3.16Z" style="fill:#ffbe9d"></path><path d="M254,227.59a8.48,8.48,0,0,1,.92-1.31l2.62-3.42,0-.06h.09l3.4,0h.12l.07.12a3.62,3.62,0,0,0,1.6,1.68,3.66,3.66,0,0,0,1.24.16,10,10,0,0,0,1.34,0l-.17.33c-.2-.39-.4-.8-.61-1.22-.76-1.53-1.49-3-2.17-4.37l.19.12-6,0,.08,0L253.43,221a8.7,8.7,0,0,1-1.25.51,7,7,0,0,1,1.16-.68l3.27-1.68,0,0h0l6,0h.13l.06.12c.7,1.37,1.43,2.83,2.2,4.35.2.42.41.83.6,1.22l.15.29-.32,0a11.23,11.23,0,0,1-1.41,0l-.69,0a2,2,0,0,1-.71-.16,4,4,0,0,1-1.81-1.91l.19.12-3.4,0,.14-.07-2.75,3.32A10,10,0,0,1,254,227.59Z" style="fill:#eb996e"></path><path d="M257,214a7.48,7.48,0,0,1,1.47-.1l4-.07.69,0-.62.34a12.3,12.3,0,0,0-2.6,1.74c-.2.2-.34.42-.25.56a1.38,1.38,0,0,0,.57.51,8.24,8.24,0,0,0,1.72.69h-.06a8.13,8.13,0,0,0,3.36-1.11,3.34,3.34,0,0,0,1.29-2.7,13,13,0,0,0-.12-3l.19.17-6.95-.55-2-.19a2.56,2.56,0,0,1-.7-.12,3,3,0,0,1,.71,0l2,.08,6.95.38h.17l0,.16a12.9,12.9,0,0,1,.15,3.13,5.82,5.82,0,0,1-.36,1.66,2.63,2.63,0,0,1-1.14,1.39,8.34,8.34,0,0,1-3.59,1.16h-.06a9.16,9.16,0,0,1-1.82-.75,1.7,1.7,0,0,1-.74-.72.72.72,0,0,1,0-.61,2,2,0,0,1,.31-.39,12.07,12.07,0,0,1,2.74-1.77l.08.33-4-.08A9.57,9.57,0,0,1,257,214Z" style="fill:#eb996e"></path><path d="M242.62,233a1.38,1.38,0,0,1,.07-.14l.23-.37c.23-.36.53-.84.93-1.45l3.57-5.47v0l3.36-7.6,2-4.58c.19-.41.34-.78.56-1.24a3.48,3.48,0,0,1,1-1A8.66,8.66,0,0,1,257,209.9l-.14.12c.27-.68.54-1.38.82-2.08.14-.35.29-.71.43-1.07a2,2,0,0,1,.92-.9,8,8,0,0,1,2.35-.68,20.07,20.07,0,0,1,2.46-.21h-.07l8.92-3.48.33-.13,0,.35c0,.84-.06,1.67-.12,2.57a7.24,7.24,0,0,1-1,2.55,8.18,8.18,0,0,1-2.12,2.23l.11-.14-1.11,4.27-.42-.16a22.6,22.6,0,0,1,1.18-2,6.41,6.41,0,0,1,1.58-1.8.74.74,0,0,1,1.2.43,4.11,4.11,0,0,1,.2,1.17c0,.38,0,.76,0,1.14,0,.19,0,.36,0,.56a4.48,4.48,0,0,1-.14.58c-.92,2.82-2,5.4-2.92,7.92-.46,1.25-.91,2.46-1.31,3.66a13.54,13.54,0,0,0-.47,1.76,3.82,3.82,0,0,1-.86,1.66,41.51,41.51,0,0,1-4.63,4.65c-1.49,1.32-2.88,2.47-4.12,3.44-.61.48-1.23.9-1.76,1.3a14.29,14.29,0,0,0-1.37,1.19c-.79.76-1.36,1.4-1.74,1.83l-.43.49-.15.16s0-.06.12-.18.23-.31.4-.52c.36-.45.91-1.11,1.68-1.9a15.84,15.84,0,0,1,1.37-1.23c.54-.42,1.13-.83,1.73-1.33,1.23-1,2.6-2.14,4.07-3.47a42.78,42.78,0,0,0,4.55-4.64,3.76,3.76,0,0,0,.78-1.49,12.4,12.4,0,0,1,.47-1.84c.39-1.2.84-2.43,1.3-3.68.91-2.51,2-5.14,2.87-7.9a2.58,2.58,0,0,0,.12-.5,4.63,4.63,0,0,0,0-.54c0-.37,0-.73,0-1.1,0-.66-.18-1.7-.73-1.24a6.13,6.13,0,0,0-1.43,1.66c-.42.64-.8,1.32-1.16,2l-.93,1.83.51-2c.36-1.39.73-2.82,1.11-4.27l0-.08.09-.06a7.81,7.81,0,0,0,1.95-2.09,6.63,6.63,0,0,0,.89-2.37c.05-.82.08-1.7.12-2.52l.3.22-8.92,3.47,0,0h0a12.29,12.29,0,0,0-4.63.82,1.61,1.61,0,0,0-.72.69l-.43,1.06c-.29.71-.56,1.4-.84,2.08l0,.09-.11,0a8.19,8.19,0,0,0-2.48,1.11,3.2,3.2,0,0,0-.89.91c-.17.35-.36.8-.54,1.19-.73,1.6-1.42,3.13-2.07,4.57l-3.44,7.58h0c-1.57,2.31-2.8,4.13-3.67,5.4l-1,1.42-.26.35C242.66,232.91,242.63,233,242.62,233Z" style="fill:#eb996e"></path><path d="M229.17,246.37a52.54,52.54,0,0,1,.91-7,52.25,52.25,0,0,1,1.36-6.92,56.89,56.89,0,0,1-.91,7A56,56,0,0,1,229.17,246.37Z" style="fill:#263238"></path><path d="M243.67,198.92c5.82-.18,10.8-5,12.86-10.62s1.65-11.89.57-17.79c-.56-3.07-1.31-6.15-1.06-9.26.59-7.67,6.86-13.47,9.55-20.64l.3,4.55a23,23,0,0,0,9.89-16.85l-8.61-2.43L253.55,129l-7.05,7.9-2.83,35.44Z" style="fill:#263238"></path><path d="M296,200.2l-2.78,35.11a2.3,2.3,0,0,1-2.44,2.11l-19.57-1.27a2.31,2.31,0,0,1-2.14-2.5l3.2-35.09a2.29,2.29,0,0,1,2.43-2.08l19.16,1.25A2.29,2.29,0,0,1,296,200.2Z" style="fill:#455a64"></path><path d="M324,244.9s5.84,39.5,5.61,44.81-6.23,17.08-14.31,18.23-15.69-6.23-15.92-15.92-1.43-40.35-1.43-40.35l6-3.32Z" style="fill:#ffbe9d"></path><path d="M309.58,247.23s.09.13.21.4.31.72.52,1.19c.43,1,1.09,2.53,1.92,4.36,1.66,3.66,4.15,8.63,6.72,14.21a100,100,0,0,1,5.6,14.72c.3,1,.48,1.86.67,2.64s.32,1.45.42,2,.15.93.21,1.28a1.86,1.86,0,0,1,0,.45,1.79,1.79,0,0,1-.14-.44l-.3-1.26c-.12-.55-.27-1.22-.49-2s-.42-1.66-.73-2.61a115,115,0,0,0-5.7-14.62c-2.57-5.57-5-10.57-6.6-14.27-.8-1.85-1.42-3.36-1.8-4.42-.17-.49-.32-.9-.44-1.22A2.13,2.13,0,0,1,309.58,247.23Z" style="fill:#eb996e"></path><path d="M290.68,212.25s6.05,3.73,7.84,4.7,1.56,8.19,1.56,8.19l10.18,23.67L298,253.21s-4.37-8.28-5.62-9.33a8.41,8.41,0,0,0-2.94-1.47s-.63,2.31-2.51,1.26a18.27,18.27,0,0,1-4-3.56s-1.68,1-2.3-.21-1.68-4-1.68-4,3.56-4.61,5-4.61,9,.42,9,.42a5.77,5.77,0,0,0-2.51-1.46c-2.09-.84-14.57-4.51-15.15-4.74-.88-.34-1.87-2.63.85-2.84s18.07,2.53,18.07,2.53.84-4,.21-4.8S288.38,216,290.68,212.25Z" style="fill:#ffbe9d"></path><path d="M282.91,239.92a3.93,3.93,0,0,1,0-1.72,3.12,3.12,0,0,1,.93-1.7,3.59,3.59,0,0,1,2.25-.68,20.91,20.91,0,0,1,4.13.15,5.06,5.06,0,0,1,1.66.39c0,.14-2.59-.29-5.76-.08a3.34,3.34,0,0,0-2,.54,2.94,2.94,0,0,0-.88,1.46A14.49,14.49,0,0,1,282.91,239.92Z" style="fill:#eb996e"></path><path d="M285.34,240.68a23,23,0,0,1,2.36,1.11,22.32,22.32,0,0,1,2.41,1,4.67,4.67,0,0,1-2.59-.55A4.73,4.73,0,0,1,285.34,240.68Z" style="fill:#eb996e"></path><path d="M293.54,225.14a3.08,3.08,0,0,1,2.16,1.07,3.12,3.12,0,0,1,1.15,2.13c-.13,0-.55-.93-1.47-1.8S293.49,225.26,293.54,225.14Z" style="fill:#eb996e"></path></g></svg>